<?xml version="1.0" encoding="UTF-8" standalone="no"?>
<!DOCTYPE svg PUBLIC "-//W3C//DTD SVG 1.1//EN" "http://www.w3.org/Graphics/SVG/1.1/DTD/svg11.dtd">
<svg width="100%" height="100%" viewBox="0 0 6037 3215" version="1.1" xmlns="http://www.w3.org/2000/svg" xmlns:xlink="http://www.w3.org/1999/xlink" xml:space="preserve" style="fill-rule:evenodd;clip-rule:evenodd;stroke-linejoin:round;stroke-miterlimit:1.41421;">
    <g id="Artboard1" transform="matrix(6.36,0,0,1.86476,15175.4,-653.323)">
        <rect x="-2386.07" y="350.353" width="949.1" height="1723.57" style="fill:url(#_Linear1);"/>
        <g transform="matrix(-0.0543921,-0.209932,-0.0642217,0.193557,-2204.4,1838.6)">
            <path d="M949.175,749.484C949.175,749.484 1205.76,1160.79 1313.97,1159.68C1422.18,1158.57 1659.24,811.168 1598.44,742.803C1537.64,674.437 949.175,749.484 949.175,749.484ZM868.282,749.484C868.282,749.484 611.701,1160.79 503.49,1159.68C395.28,1158.57 158.219,811.168 219.017,742.803C279.816,674.437 868.282,749.484 868.282,749.484ZM907.678,1124.74L902.882,480.952L925.755,481.188L907.678,1124.74ZM949.017,731.035C949.017,731.035 1487.12,680.901 1571.96,574.516C1656.8,468.13 1561.87,66.636 1458.04,92.722C1354.22,118.809 949.017,731.035 949.017,731.035ZM868.44,731.035C868.44,731.035 330.336,680.901 245.499,574.516C160.661,468.13 255.592,66.636 359.416,92.722C463.239,118.809 868.44,731.035 868.44,731.035Z" style="fill:rgb(101,118,170);fill-opacity:0.6;"/>
            <clipPath id="_clip2">
                <path d="M949.175,749.484C949.175,749.484 1205.76,1160.79 1313.97,1159.68C1422.18,1158.57 1659.24,811.168 1598.44,742.803C1537.64,674.437 949.175,749.484 949.175,749.484ZM868.282,749.484C868.282,749.484 611.701,1160.79 503.49,1159.68C395.28,1158.57 158.219,811.168 219.017,742.803C279.816,674.437 868.282,749.484 868.282,749.484ZM907.678,1124.74L902.882,480.952L925.755,481.188L907.678,1124.74ZM949.017,731.035C949.017,731.035 1487.12,680.901 1571.96,574.516C1656.8,468.13 1561.87,66.636 1458.04,92.722C1354.22,118.809 949.017,731.035 949.017,731.035ZM868.44,731.035C868.44,731.035 330.336,680.901 245.499,574.516C160.661,468.13 255.592,66.636 359.416,92.722C463.239,118.809 868.44,731.035 868.44,731.035Z"/>
            </clipPath>
            <g clip-path="url(#_clip2)">
                <g id="Mask2" transform="matrix(-0.994466,-0.272332,-0.229555,0.838258,3652.25,242.138)">
                    <rect x="708.391" y="364.53" width="1321.15" height="1389.41" style="fill:none;"/>
                </g>
            </g>
        </g>
        <g transform="matrix(-0.0384799,-0.148517,-0.0517034,0.155828,-2220.39,1203.84)">
            <path d="M949.175,749.484C949.175,749.484 1205.76,1160.79 1313.97,1159.68C1422.18,1158.57 1659.24,811.168 1598.44,742.803C1537.64,674.437 949.175,749.484 949.175,749.484ZM868.282,749.484C868.282,749.484 611.701,1160.79 503.49,1159.68C395.28,1158.57 158.219,811.168 219.017,742.803C279.816,674.437 868.282,749.484 868.282,749.484ZM907.678,1124.74L902.882,480.952L925.755,481.188L907.678,1124.74ZM949.017,731.035C949.017,731.035 1487.12,680.901 1571.96,574.516C1656.8,468.13 1561.87,66.636 1458.04,92.722C1354.22,118.809 949.017,731.035 949.017,731.035ZM868.44,731.035C868.44,731.035 330.336,680.901 245.499,574.516C160.661,468.13 255.592,66.636 359.416,92.722C463.239,118.809 868.44,731.035 868.44,731.035Z" style="fill:rgb(101,118,170);fill-opacity:0.501961;"/>
            <clipPath id="_clip3">
                <path d="M949.175,749.484C949.175,749.484 1205.76,1160.79 1313.97,1159.68C1422.18,1158.57 1659.24,811.168 1598.44,742.803C1537.64,674.437 949.175,749.484 949.175,749.484ZM868.282,749.484C868.282,749.484 611.701,1160.79 503.49,1159.68C395.28,1158.57 158.219,811.168 219.017,742.803C279.816,674.437 868.282,749.484 868.282,749.484ZM907.678,1124.74L902.882,480.952L925.755,481.188L907.678,1124.74ZM949.017,731.035C949.017,731.035 1487.12,680.901 1571.96,574.516C1656.8,468.13 1561.87,66.636 1458.04,92.722C1354.22,118.809 949.017,731.035 949.017,731.035ZM868.44,731.035C868.44,731.035 330.336,680.901 245.499,574.516C160.661,468.13 255.592,66.636 359.416,92.722C463.239,118.809 868.44,731.035 868.44,731.035Z"/>
            </clipPath>
            <g clip-path="url(#_clip3)">
                <g id="Mask21" transform="matrix(-0.994466,-0.272332,-0.229555,0.838258,3652.25,242.138)">
                    <rect x="708.391" y="364.53" width="1321.15" height="1389.41" style="fill:none;"/>
                </g>
            </g>
        </g>
        <g transform="matrix(-0.0384799,-0.148517,-0.0517034,0.155828,-2098.62,1422.79)">
            <path d="M949.175,749.484C949.175,749.484 1205.76,1160.79 1313.97,1159.68C1422.18,1158.57 1659.24,811.168 1598.44,742.803C1537.64,674.437 949.175,749.484 949.175,749.484ZM868.282,749.484C868.282,749.484 611.701,1160.79 503.49,1159.68C395.28,1158.57 158.219,811.168 219.017,742.803C279.816,674.437 868.282,749.484 868.282,749.484ZM907.678,1124.74L902.882,480.952L925.755,481.188L907.678,1124.74ZM949.017,731.035C949.017,731.035 1487.12,680.901 1571.96,574.516C1656.8,468.13 1561.87,66.636 1458.04,92.722C1354.22,118.809 949.017,731.035 949.017,731.035ZM868.44,731.035C868.44,731.035 330.336,680.901 245.499,574.516C160.661,468.13 255.592,66.636 359.416,92.722C463.239,118.809 868.44,731.035 868.44,731.035Z" style="fill:rgb(101,118,170);fill-opacity:0.45098;"/>
            <clipPath id="_clip4">
                <path d="M949.175,749.484C949.175,749.484 1205.76,1160.79 1313.97,1159.68C1422.18,1158.57 1659.24,811.168 1598.44,742.803C1537.64,674.437 949.175,749.484 949.175,749.484ZM868.282,749.484C868.282,749.484 611.701,1160.79 503.49,1159.68C395.28,1158.57 158.219,811.168 219.017,742.803C279.816,674.437 868.282,749.484 868.282,749.484ZM907.678,1124.74L902.882,480.952L925.755,481.188L907.678,1124.74ZM949.017,731.035C949.017,731.035 1487.12,680.901 1571.96,574.516C1656.8,468.13 1561.87,66.636 1458.04,92.722C1354.22,118.809 949.017,731.035 949.017,731.035ZM868.44,731.035C868.44,731.035 330.336,680.901 245.499,574.516C160.661,468.13 255.592,66.636 359.416,92.722C463.239,118.809 868.44,731.035 868.44,731.035Z"/>
            </clipPath>
            <g clip-path="url(#_clip4)">
                <g id="Mask22" transform="matrix(-0.994466,-0.272332,-0.229555,0.838258,3652.25,242.138)">
                    <rect x="708.391" y="364.53" width="1321.15" height="1389.41" style="fill:none;"/>
                </g>
            </g>
        </g>
        <g transform="matrix(-0.0269303,-0.10394,-0.0310663,0.09363,-2031.18,1154.63)">
            <path d="M949.175,749.484C949.175,749.484 1205.76,1160.79 1313.97,1159.68C1422.18,1158.57 1659.24,811.168 1598.44,742.803C1537.64,674.437 949.175,749.484 949.175,749.484ZM868.282,749.484C868.282,749.484 611.701,1160.79 503.49,1159.68C395.28,1158.57 158.219,811.168 219.017,742.803C279.816,674.437 868.282,749.484 868.282,749.484ZM907.678,1124.74L902.882,480.952L925.755,481.188L907.678,1124.74ZM949.017,731.035C949.017,731.035 1487.12,680.901 1571.96,574.516C1656.8,468.13 1561.87,66.636 1458.04,92.722C1354.22,118.809 949.017,731.035 949.017,731.035ZM868.44,731.035C868.44,731.035 330.336,680.901 245.499,574.516C160.661,468.13 255.592,66.636 359.416,92.722C463.239,118.809 868.44,731.035 868.44,731.035Z" style="fill:rgb(101,118,170);fill-opacity:0.301961;"/>
            <clipPath id="_clip5">
                <path d="M949.175,749.484C949.175,749.484 1205.76,1160.79 1313.97,1159.68C1422.18,1158.57 1659.24,811.168 1598.44,742.803C1537.64,674.437 949.175,749.484 949.175,749.484ZM868.282,749.484C868.282,749.484 611.701,1160.79 503.49,1159.68C395.28,1158.57 158.219,811.168 219.017,742.803C279.816,674.437 868.282,749.484 868.282,749.484ZM907.678,1124.74L902.882,480.952L925.755,481.188L907.678,1124.74ZM949.017,731.035C949.017,731.035 1487.12,680.901 1571.96,574.516C1656.8,468.13 1561.87,66.636 1458.04,92.722C1354.22,118.809 949.017,731.035 949.017,731.035ZM868.44,731.035C868.44,731.035 330.336,680.901 245.499,574.516C160.661,468.13 255.592,66.636 359.416,92.722C463.239,118.809 868.44,731.035 868.44,731.035Z"/>
            </clipPath>
            <g clip-path="url(#_clip5)">
                <g id="Mask23" transform="matrix(-0.994466,-0.272332,-0.229555,0.838258,3652.25,242.138)">
                    <rect x="708.391" y="364.53" width="1321.15" height="1389.41" style="fill:none;"/>
                </g>
            </g>
        </g>
        <g transform="matrix(-0.0384799,-0.148517,-0.0517034,0.155828,-2038.93,1855.85)">
            <path d="M949.175,749.484C949.175,749.484 1205.76,1160.79 1313.97,1159.68C1422.18,1158.57 1659.24,811.168 1598.44,742.803C1537.64,674.437 949.175,749.484 949.175,749.484ZM868.282,749.484C868.282,749.484 611.701,1160.79 503.49,1159.68C395.28,1158.57 158.219,811.168 219.017,742.803C279.816,674.437 868.282,749.484 868.282,749.484ZM907.678,1124.74L902.882,480.952L925.755,481.188L907.678,1124.74ZM949.017,731.035C949.017,731.035 1487.12,680.901 1571.96,574.516C1656.8,468.13 1561.87,66.636 1458.04,92.722C1354.22,118.809 949.017,731.035 949.017,731.035ZM868.44,731.035C868.44,731.035 330.336,680.901 245.499,574.516C160.661,468.13 255.592,66.636 359.416,92.722C463.239,118.809 868.44,731.035 868.44,731.035Z" style="fill:rgb(101,118,170);fill-opacity:0.501961;"/>
            <clipPath id="_clip6">
                <path d="M949.175,749.484C949.175,749.484 1205.76,1160.79 1313.97,1159.68C1422.18,1158.57 1659.24,811.168 1598.44,742.803C1537.64,674.437 949.175,749.484 949.175,749.484ZM868.282,749.484C868.282,749.484 611.701,1160.79 503.49,1159.68C395.28,1158.57 158.219,811.168 219.017,742.803C279.816,674.437 868.282,749.484 868.282,749.484ZM907.678,1124.74L902.882,480.952L925.755,481.188L907.678,1124.74ZM949.017,731.035C949.017,731.035 1487.12,680.901 1571.96,574.516C1656.8,468.13 1561.87,66.636 1458.04,92.722C1354.22,118.809 949.017,731.035 949.017,731.035ZM868.44,731.035C868.44,731.035 330.336,680.901 245.499,574.516C160.661,468.13 255.592,66.636 359.416,92.722C463.239,118.809 868.44,731.035 868.44,731.035Z"/>
            </clipPath>
            <g clip-path="url(#_clip6)">
                <g id="Mask24" transform="matrix(-0.994466,-0.272332,-0.229555,0.838258,3652.25,242.138)">
                    <rect x="708.391" y="364.53" width="1321.15" height="1389.41" style="fill:none;"/>
                </g>
            </g>
        </g>
    </g>
    <defs>
        <linearGradient id="_Linear1" x1="0" y1="0" x2="1" y2="0" gradientUnits="userSpaceOnUse" gradientTransform="matrix(949.1,-1723.57,505.351,3237.03,-2386.07,2073.92)"><stop offset="0" style="stop-color:rgb(127,217,252);stop-opacity:1"/><stop offset="1" style="stop-color:rgb(101,118,170);stop-opacity:1"/></linearGradient>
    </defs>
</svg>
