<?xml version="1.0" encoding="UTF-8" standalone="no"?><!DOCTYPE svg PUBLIC "-//W3C//DTD SVG 1.1//EN" "http://www.w3.org/Graphics/SVG/1.1/DTD/svg11.dtd"><svg width="100%" height="100%" viewBox="0 0 441 301" version="1.1" xmlns="http://www.w3.org/2000/svg" xmlns:xlink="http://www.w3.org/1999/xlink" xml:space="preserve" style="fill-rule:evenodd;clip-rule:evenodd;stroke-linejoin:round;stroke-miterlimit:1.41421;"><rect id="Artboard2" x="0" y="0" width="440.99" height="300.675" style="fill:none;"/><path d="M227.802,179.876c0,0 61.58,98.714 87.55,98.447c25.971,-0.267 82.865,-83.643 68.274,-100.05c-14.592,-16.408 -155.824,1.603 -155.824,1.603Z" style="fill:#a10115;"/><clipPath id="_clip1"><path d="M227.802,179.876c0,0 61.58,98.714 87.55,98.447c25.971,-0.267 82.865,-83.643 68.274,-100.05c-14.592,-16.408 -155.824,1.603 -155.824,1.603Z"/></clipPath><g clip-path="url(#_clip1)"><path id="Mask2" d="M372.064,-1.2l315.321,86.35l-76.547,279.523l-315.321,-86.35l76.547,-279.523Z" style="fill:#d72c16;"/></g><path d="M208.388,179.876c0,0 -61.58,98.714 -87.55,98.447c-25.971,-0.267 -82.865,-83.643 -68.274,-100.05c14.592,-16.408 155.824,1.603 155.824,1.603Z" style="fill:#a10115;"/><clipPath id="_clip2"><path d="M208.388,179.876c0,0 -61.58,98.714 -87.55,98.447c-25.971,-0.267 -82.865,-83.643 -68.274,-100.05c14.592,-16.408 155.824,1.603 155.824,1.603Z"/></clipPath><g clip-path="url(#_clip2)"><path id="Mask" d="M66.636,-1.2l-315.321,86.35l76.547,279.523l315.321,-86.35l-76.547,-279.523Z" style="fill:#d72c16;"/></g><path d="M227.764,175.448c0,0 129.145,-12.032 149.506,-37.564c20.361,-25.533 -2.422,-121.891 -27.34,-115.631c-24.918,6.261 -122.166,153.195 -122.166,153.195Z" style="fill:#030303;"/><clipPath id="_clip3"><path d="M227.764,175.448c0,0 129.145,-12.032 149.506,-37.564c20.361,-25.533 -2.422,-121.891 -27.34,-115.631c-24.918,6.261 -122.166,153.195 -122.166,153.195Z"/></clipPath><g clip-path="url(#_clip3)"><path id="Mask21" d="M372.064,-1.2l315.321,86.35l-76.547,279.523l-315.321,-86.35l76.547,-279.523Z" style="fill:#363636;"/></g><path d="M208.426,175.448c0,0 -129.145,-12.032 -149.506,-37.564c-20.361,-25.533 2.422,-121.891 27.34,-115.631c24.917,6.261 122.166,153.195 122.166,153.195Z" style="fill:#030303;"/><clipPath id="_clip4"><path d="M208.426,175.448c0,0 -129.145,-12.032 -149.506,-37.564c-20.361,-25.533 2.422,-121.891 27.34,-115.631c24.917,6.261 122.166,153.195 122.166,153.195Z"/></clipPath><g clip-path="url(#_clip4)"><path id="Mask1" d="M66.636,-1.2l-315.321,86.35l76.547,279.523l315.321,-86.35l-76.547,-279.523Z" style="fill:#363636;"/></g><path d="M217.843,269.938l-1.151,-154.51l5.489,0.057l-4.338,154.453Z"/></svg>